# xmcd
#
# Track frame offsets:
#	150
#	16857
#	44472
#	59061
#	76618
#	91806
#	108777
#	130930
#	150897
#	176144
#
# Disc length: 2551 seconds
#
# Revision: 0
# Processed by: cddbd v1.5.2PL0 Copyright (c) Steve Scherf et al.
# Submitted via: audiograbber 1.83.01
#
DISCID=6d09f50a
DTITLE=Franz K. - Zieh Deine Schwarzen Schuhe An
DYEAR=1989
DGENRE=German Rock
TTITLE0=Zieh Deine Schwarzen Schuhe An
TTITLE1=Heute Nicht (Maxi-Version)
TTITLE2=Wasser In Der Wueste
TTITLE3=Purer Wahnsinn
TTITLE4=Vulkan Unterm Eis
TTITLE5=Ewig Und 3 Tage
TTITLE6=Extra-Mischung (Maxi-Version)
TTITLE7=Dr.Basic
TTITLE8=Rebellen Der Liebe (Maxi-Version)
TTITLE9=Die 7.Dimension
EXTD=
EXTT0=
EXTT1=
EXTT2=
EXTT3=
EXTT4=
EXTT5=
EXTT6=
EXTT7=
EXTT8=
EXTT9=
PLAYORDER=
